<svg width="324" height="327" viewBox="0 0 324 327" fill="none" xmlns="http://www.w3.org/2000/svg">
<path d="M146.289 241C180.463 241.513 197.457 239.387 222.289 229.5C201.27 226.706 187.102 223.229 156.789 213C142.423 206.845 135.057 203.172 122.289 196.5C104.746 185.56 95.3713 178.875 80.2887 165C69.8421 153.899 63.7963 147.659 58.2887 137L67.7887 145.5C78.2162 153.699 84.36 158.403 97.2887 167.5C118.141 179.348 130.745 185.84 158.789 196.5C178.985 205.286 193.837 209.165 222.289 215.5C219.922 205.307 218.676 199.671 214.289 187.5C209.341 168.179 204.089 157.871 192.289 140C176.76 118.098 167.076 108.33 148.789 93.5001C119.997 74.5809 104.353 67.5429 77.2887 61.0001C47.6643 56.3363 31.3868 56.6381 2.78874 61.0001C-0.377324 83.794 0.784002 95.2487 5.28894 118.5L13.2887 142.5C21.4097 160.599 27.9939 170.432 42.7887 187.5C56.9921 203.543 66.594 210.908 86.2887 221.5C105.93 232.735 119.348 236.737 146.289 241Z" fill="#1A9426" stroke="#1A9426"/>
<path d="M213.289 72C194.349 79.8358 186.534 85.7374 172.289 96C191.222 114.678 199.962 125.81 211.789 147C232.481 135.432 243.47 128.904 259.289 117C273.692 106.336 278.708 101.435 286.789 93C283.679 98.5725 281.918 101.708 276.789 108.5C269.361 118.134 264.099 123.213 253.789 132C241.39 142.506 233.351 148.422 217.789 159C229.701 183.749 232.891 198.061 235.289 224C248.054 216.391 254.968 212.079 265.289 204C281.957 188.785 289.632 179.78 300.789 163C310.523 145.293 314.904 134.666 320.789 114.5C323.222 94.742 324.228 83.4068 322.289 60.5C296.511 56.7064 283.006 56.52 260.289 59C239.507 62.4497 228.971 65.6054 213.289 72Z" fill="#2E622A" stroke="#1A9426"/>
<path d="M115.429 1.088C116.645 0.895998 118.437 0.959998 120.805 1.28C124.261 1.856 127.141 3.296 129.445 5.6C131.877 8.032 133.477 11.36 134.245 15.584C134.501 17.376 134.629 19.008 134.629 20.48C134.629 20.928 134.501 21.28 134.245 21.536L133.957 21.824H120.901H107.845V23.456C107.845 28.32 108.517 31.904 109.861 34.208C111.333 36.768 113.573 38.528 116.581 39.488C118.117 39.936 119.621 40.16 121.093 40.16C122.117 40.16 122.853 40.096 123.301 39.968C126.373 39.072 128.485 36.704 129.637 32.864C129.765 32.352 129.957 31.968 130.213 31.712L130.501 31.424H132.229H133.957L134.245 31.712C134.629 32.032 134.661 32.704 134.341 33.728C133.765 35.392 132.997 36.864 132.037 38.144C131.077 39.616 129.797 40.896 128.197 41.984C125.701 43.84 122.757 44.864 119.365 45.056C113.605 45.248 108.581 43.264 104.293 39.104C102.565 37.44 101.061 35.392 99.7809 32.96C98.1809 29.632 97.4129 26.048 97.4769 22.208C97.5409 18.88 98.3409 15.616 99.8769 12.416C102.757 6.592 107.205 2.944 113.221 1.472C113.925 1.28 114.661 1.152 115.429 1.088ZM119.269 5.792C118.437 5.536 117.349 5.472 116.005 5.6C112.741 6.304 110.437 8.32 109.093 11.648C108.389 13.632 108.037 15.424 108.037 17.024V17.408H116.869H125.701V16.64C125.509 14.336 124.965 12.192 124.069 10.208C122.917 7.968 121.317 6.496 119.269 5.792ZM159.237 1.088C160.645 0.959997 162.661 0.991998 165.285 1.184C169.573 1.76 172.677 3.168 174.597 5.408C175.237 6.176 175.685 7.072 175.941 8.096C176.197 8.992 176.261 10.08 176.133 11.36C175.621 13.6 174.181 14.976 171.813 15.488C169.381 16 167.461 15.296 166.053 13.376C165.605 12.8 165.285 12.128 165.093 11.36C164.773 9.44 165.093 7.872 166.053 6.656C166.245 6.464 166.341 6.304 166.341 6.176C166.341 5.984 164.933 5.888 162.117 5.888C160.645 5.888 159.749 5.92 159.429 5.984C157.765 6.432 156.293 7.296 155.013 8.576C152.901 10.688 151.621 13.92 151.173 18.272C150.917 20.512 150.885 23.264 151.077 26.528C151.141 26.848 151.173 27.104 151.173 27.296C151.621 30.368 152.453 32.832 153.669 34.688C155.909 38.08 159.141 39.936 163.365 40.256C166.117 40.32 168.357 39.328 170.085 37.28C171.173 35.872 171.941 34.368 172.389 32.768C172.581 32.128 172.837 31.776 173.157 31.712C173.413 31.648 173.989 31.616 174.885 31.616H176.709L176.997 31.904C177.317 32.224 177.285 32.864 176.901 33.824C176.581 34.976 175.909 36.416 174.885 38.144C171.557 42.944 166.821 45.248 160.677 45.056C157.605 44.864 154.789 44.128 152.229 42.848C145.893 39.584 142.085 34.144 140.805 26.528C140.549 24.992 140.517 23.072 140.709 20.768C140.773 20.576 140.805 20.416 140.805 20.288C141.573 14.272 144.197 9.376 148.677 5.6C151.813 3.104 155.333 1.6 159.237 1.088ZM201.701 1.184C207.461 0.479999 212.677 2.08 217.349 5.984C217.797 6.368 218.213 6.752 218.597 7.136C219.557 8.096 220.133 8.736 220.325 9.056C224.485 14.368 226.053 20.32 225.029 26.912C224.965 27.232 224.901 27.552 224.837 27.872C223.685 33.824 220.517 38.432 215.333 41.696C213.413 42.912 211.333 43.808 209.093 44.384C207.621 44.768 205.957 44.96 204.101 44.96C202.181 44.96 200.485 44.768 199.013 44.384C192.997 42.848 188.485 39.392 185.477 34.016C183.685 30.752 182.789 27.232 182.789 23.456C182.789 18.784 184.037 14.592 186.533 10.88C190.245 5.184 195.301 1.952 201.701 1.184ZM205.637 5.6C202.053 5.088 199.045 5.984 196.613 8.288C194.693 10.016 193.605 12.928 193.349 17.024C193.285 17.28 193.253 17.568 193.253 17.888C192.997 21.152 193.029 24.992 193.349 29.408C193.605 31.776 194.053 33.568 194.693 34.784C196.037 37.728 198.501 39.488 202.085 40.064C203.301 40.32 204.549 40.352 205.829 40.16C209.413 39.584 211.941 37.792 213.413 34.784C214.053 33.568 214.501 31.776 214.757 29.408C215.077 26.464 215.109 22.784 214.853 18.368C214.853 18.176 214.853 18.016 214.853 17.888C214.597 13.472 213.573 10.368 211.781 8.576C211.717 8.512 211.621 8.416 211.493 8.288C209.893 6.752 207.941 5.856 205.637 5.6Z" fill="#091F0B"/>
<path d="M92.6529 275.848C92.2049 276.296 91.9809 277.672 91.9809 279.976V280.84H102.157V290.248H91.9809V325H75.5649V290.248H68.3649V281.704L75.5649 280.84V279.4C75.5649 276.584 75.9489 273.896 76.7169 271.336C77.4849 268.776 78.1889 267.24 78.8289 266.728C80.8129 265.064 85.0369 264.232 91.5009 264.232C95.0209 264.232 98.9569 264.488 103.309 265C103.309 265.768 103.181 267.304 102.925 269.608C102.733 271.912 102.541 273.864 102.349 275.464L98.2209 275.368C94.8289 275.368 92.9729 275.528 92.6529 275.848ZM127.631 326.248C119.951 326.248 114.191 324.456 110.351 320.872C106.575 317.224 104.687 311.496 104.687 303.688C104.687 299.4 105.071 295.656 105.839 292.456C106.671 289.192 107.663 286.92 108.815 285.64C110.287 283.976 112.975 282.6 116.879 281.512C120.847 280.424 124.559 279.88 128.015 279.88C136.271 279.88 142.159 281.64 145.679 285.16C149.199 288.68 150.959 294.312 150.959 302.056C150.959 310.376 149.071 316.488 145.295 320.392C141.519 324.296 135.631 326.248 127.631 326.248ZM127.919 315.016C130.415 315.016 132.047 314.152 132.815 312.424C133.583 310.632 133.967 307.496 133.967 303.016C133.967 299.88 133.807 297.48 133.487 295.816C133.167 294.088 132.559 292.84 131.663 292.072C130.831 291.24 129.519 290.824 127.727 290.824C125.167 290.824 123.695 291.048 123.311 291.496C122.799 291.944 122.383 293.352 122.063 295.72C121.743 298.088 121.583 300.552 121.583 303.112C121.583 307.464 121.999 310.536 122.831 312.328C123.727 314.12 125.423 315.016 127.919 315.016ZM178.537 326.248C170.857 326.248 165.097 324.456 161.257 320.872C157.481 317.224 155.593 311.496 155.593 303.688C155.593 299.4 155.977 295.656 156.745 292.456C157.577 289.192 158.569 286.92 159.721 285.64C161.193 283.976 163.881 282.6 167.785 281.512C171.753 280.424 175.465 279.88 178.921 279.88C187.177 279.88 193.065 281.64 196.585 285.16C200.105 288.68 201.865 294.312 201.865 302.056C201.865 310.376 199.977 316.488 196.201 320.392C192.425 324.296 186.537 326.248 178.537 326.248ZM178.825 315.016C181.321 315.016 182.953 314.152 183.721 312.424C184.489 310.632 184.873 307.496 184.873 303.016C184.873 299.88 184.713 297.48 184.393 295.816C184.073 294.088 183.465 292.84 182.569 292.072C181.737 291.24 180.425 290.824 178.633 290.824C176.073 290.824 174.601 291.048 174.217 291.496C173.705 291.944 173.289 293.352 172.969 295.72C172.649 298.088 172.489 300.552 172.489 303.112C172.489 307.464 172.905 310.536 173.737 312.328C174.633 314.12 176.329 315.016 178.825 315.016ZM252.099 266.728V325H238.563L237.219 317.608C235.939 320.104 234.051 322.088 231.555 323.56C229.059 325.032 226.243 325.768 223.107 325.768C218.115 325.768 214.115 323.976 211.107 320.392C208.163 316.808 206.691 311.432 206.691 304.264C206.691 298.824 207.331 294.344 208.611 290.824C209.891 287.304 211.395 284.776 213.123 283.24C214.211 282.28 216.419 281.48 219.747 280.84C223.139 280.2 226.147 279.88 228.771 279.88C231.075 279.88 233.443 280.104 235.875 280.552C235.683 277.48 235.587 275.784 235.587 275.464V267.4L252.099 266.728ZM230.307 312.904C232.035 312.904 233.827 312.616 235.683 312.04V291.208C233.827 290.952 231.779 290.824 229.539 290.824C227.619 290.824 226.403 290.984 225.891 291.304C225.187 291.816 224.611 293.288 224.163 295.72C223.779 298.088 223.587 300.584 223.587 303.208C223.587 307.112 224.163 309.704 225.315 310.984C226.531 312.264 228.195 312.904 230.307 312.904Z" fill="#41944E"/>
</svg>
